<svg id="Layer_1" data-name="Layer 1" xmlns="http://www.w3.org/2000/svg" width="0.4in" height="0.4in" viewBox="0 0 29.9 32.3"><title>Logo — 32px</title><path d="M14.9,5.4A11.9,11.9,0,1,0,26.8,17.4,11.9,11.9,0,0,0,14.9,5.4Zm.9,6.9c.3-1.4,1.4-2.4,2.3-2.2s1.4,1.6,1.1,3-1.4,2.4-2.3,2.2S15.5,13.8,15.9,12.3Zm-6.2,7c-.9.3-2-.5-2.5-1.9s-.1-2.7.8-3.1,2,.5,2.5,1.9S10.6,19,9.7,19.3Zm2.1-9.2c.9-.2,2,.7,2.4,2.1s-.1,2.8-1.1,3-2-.7-2.4-2.1S10.9,10.4,11.8,10.2ZM18,24.9a3.2,3.2,0,0,1-2.8-1.3,3.2,3.2,0,0,1-2.8,1.2c-1.4-.2-2-1.8-1.4-3.5a4.5,4.5,0,0,1,1.6-2.1,4.9,4.9,0,0,1,4.4-.4,4.3,4.3,0,0,1,2.3,2.5h0C20,23.2,19.4,24.7,18,24.9Zm5-7.5c-.5,1.4-1.6,2.2-2.5,1.9s-1.3-1.7-.8-3.1,1.6-2.2,2.5-1.9S23.5,16.1,23,17.5Z" fill="#231f20"/><path d="M16.9,3.2A14.3,14.3,0,1,1,.7,17.4,14.3,14.3,0,0,1,13.5,3.2" fill="none" stroke="#231f20" stroke-linejoin="round" stroke-width="1.26"/><path d="M12.8,3a2.3,2.3,0,1,1,4.7,0" fill="none" stroke="#231f20" stroke-miterlimit="10" stroke-width="1.26"/></svg>