<svg id="Layer_1" data-name="Layer 1" xmlns="http://www.w3.org/2000/svg" width="0.8in" height="0.9in" viewBox="0 0 59.8 64.5"><title>Logo — 64px</title><path d="M29.8,10.7A23.8,23.8,0,1,0,53.6,34.5,23.8,23.8,0,0,0,29.8,10.7Zm1.9,13.8c.7-2.8,2.8-4.8,4.7-4.3s2.9,3.1,2.2,6-2.8,4.8-4.7,4.3S31,27.3,31.7,24.5Zm-12.4,14c-1.8.7-4.1-1-5.1-3.8s-.3-5.5,1.5-6.1,4.1,1,5.1,3.8S21.1,37.8,19.3,38.5Zm4.2-18.3c1.9-.5,4,1.4,4.7,4.3s-.2,5.5-2.1,6-4-1.4-4.7-4.3S21.6,20.6,23.5,20.2ZM35.9,49.6a6.4,6.4,0,0,1-5.5-2.5,6.4,6.4,0,0,1-5.5,2.5c-2.8-.4-4-3.5-2.8-6.9a8.9,8.9,0,0,1,3.2-4.2,9.8,9.8,0,0,1,8.9-.8,8.5,8.5,0,0,1,4.6,5h0C39.9,46.1,38.7,49.2,35.9,49.6Zm9.9-14.9c-1,2.7-3.2,4.4-5.1,3.8s-2.5-3.4-1.5-6.1,3.2-4.4,5.1-3.8S46.8,32,45.8,34.7Z" fill="#231f20"/><path d="M33.7,6.2A28.5,28.5,0,1,1,1.3,34.5,28.7,28.7,0,0,1,26.8,6.2" fill="none" stroke="#231f20" stroke-linejoin="round" stroke-width="2.52"/><path d="M25.6,5.8a4.7,4.7,0,0,1,9.4,0" fill="none" stroke="#231f20" stroke-miterlimit="10" stroke-width="2.52"/></svg>