<svg id="Layer_1" data-name="Layer 1" xmlns="http://www.w3.org/2000/svg" width="3.3in" height="3.5in" viewBox="0 0 237 255"><title> Logo — 256px</title><path d="M118.4,42.7a94.4,94.4,0,1,0,94.4,94.4A94.4,94.4,0,0,0,118.4,42.7Zm7.5,54.7c2.7-11.3,11-19,18.5-17.2s11.5,12.4,8.8,23.7-10.9,19-18.5,17.2S123.3,108.7,125.9,97.4ZM76.8,152.8c-7.2,2.6-16.2-4.1-20.1-14.9s-1.2-21.7,6.1-24.3,16.2,4.1,20.1,14.9S84,150.2,76.8,152.8ZM93.6,80.3c7.5-1.9,15.9,5.7,18.8,16.9s-.9,21.9-8.4,23.8-15.9-5.7-18.7-16.9S86.1,82.2,93.6,80.3ZM142.8,197c-7.5,1.2-15.9-2.9-22-10-6.1,7-14.4,11-21.9,9.9-10.9-1.7-15.9-14-11.1-27.5a35.3,35.3,0,0,1,12.5-16.7c9.6-6.8,24.4-7.5,35.1-3.1,8.6,3.5,15.1,11.1,18.3,19.7v.3C158.7,183,153.7,195.3,142.8,197Zm39.4-59.2c-3.9,10.8-12.9,17.5-20.1,14.9s-9.9-13.5-6.1-24.3,12.9-17.5,20.1-14.9S186,127,182.1,137.9Z" fill="#231f20"/><path d="M134.1,24.9c55.6,7,97.2,54.7,97.2,112.2a112.9,112.9,0,0,1-225.8,0C5.5,79,50.2,31.1,106.7,24.9" fill="none" stroke="#231f20" stroke-linejoin="round" stroke-width="10"/><path d="M101.7,23.4a18.6,18.6,0,0,1,37.2,0" fill="none" stroke="#231f20" stroke-miterlimit="10" stroke-width="10"/></svg>